<?xml version="1.0" standalone="no"?>
<!DOCTYPE svg PUBLIC "-//W3C//DTD SVG 20010904//EN"
 "http://www.w3.org/TR/2001/REC-SVG-20010904/DTD/svg10.dtd">
<svg version="1.0" xmlns="http://www.w3.org/2000/svg"
 width="1024.000000pt" height="1024.000000pt" viewBox="0 0 1024.000000 1024.000000"
 preserveAspectRatio="xMidYMid meet">
<metadata>
Created by potrace 1.14, written by Peter Selinger 2001-2017
</metadata>
<g transform="translate(0.000000,1024.000000) scale(0.100000,-0.100000)"
fill="#000000" stroke="none">
<path d="M0 5120 l0 -5120 5120 0 5120 0 0 5120 0 5120 -5120 0 -5120 0 0
-5120z m5592 2111 l426 -6 -35 -60 c-20 -33 -73 -123 -118 -200 -45 -77 -142
-241 -215 -365 -73 -124 -232 -396 -352 -605 -121 -209 -232 -398 -247 -420
-15 -22 -51 -82 -80 -133 -29 -51 -55 -91 -58 -89 -2 3 7 24 21 46 27 41 40
97 28 116 -4 6 -9 -12 -12 -40 -4 -42 -8 -49 -23 -47 -15 3 -17 -1 -12 -17 3
-10 1 -22 -5 -26 -5 -3 -9 -18 -8 -33 0 -15 -13 -51 -31 -82 -147 -249 -215
-359 -219 -355 -3 2 -1 10 5 17 12 16 14 56 4 63 -5 2 -11 -4 -14 -15 -3 -11
-1 -20 4 -20 6 0 5 -9 -1 -20 -6 -11 -8 -25 -5 -30 7 -11 -125 -243 -133 -235
-3 2 1 11 8 20 7 8 9 15 5 15 -4 0 0 11 9 25 19 28 21 39 5 30 -5 -4 -15 -19
-21 -33 -9 -25 -11 -25 -17 -8 -7 19 -8 19 -13 -2 -4 -12 -2 -20 4 -19 6 1 12
-9 13 -23 3 -29 -161 -314 -176 -305 -5 3 -6 0 -3 -8 3 -8 -2 -21 -10 -30 -8
-8 -13 -16 -11 -18 2 -2 -93 -163 -210 -357 l-212 -353 -189 -117 c-104 -65
-257 -158 -341 -207 -84 -50 -153 -93 -153 -96 0 -3 134 34 298 82 l297 89
560 -1 c540 -2 1367 -13 1198 -17 -83 -2 -105 -14 -60 -32 21 -8 20 -9 -8 -11
-16 -1 -22 -3 -13 -6 15 -4 15 -8 2 -45 -18 -52 -31 -68 -58 -69 -19 -1 -18
-2 4 -9 14 -4 19 -8 11 -9 -8 -1 -12 -4 -9 -7 4 -3 19 2 35 11 27 15 27 15 3
10 l-25 -6 25 15 c28 16 46 11 30 -9 -15 -19 -209 -112 -292 -141 l-68 -24
-1205 0 c-663 0 -1205 2 -1205 4 0 5 39 70 715 1191 219 363 492 816 607 1008
116 191 214 345 218 342 5 -3 15 4 23 16 10 14 16 16 19 8 3 -9 6 -8 10 3 9
22 -18 17 -37 -8 -8 -10 -15 -15 -15 -11 0 10 60 99 73 108 5 3 8 9 7 13 -4
14 152 266 160 261 5 -3 12 0 16 6 4 8 3 9 -4 5 -20 -12 -13 8 18 57 17 26 30
50 30 54 0 3 58 101 129 217 241 394 232 383 313 440 40 29 161 115 268 191
214 152 260 187 260 196 0 7 -243 -90 -435 -174 l-120 -52 -665 0 c-735 0
-739 0 -928 66 -125 44 -695 270 -706 280 -11 10 2235 10 2916 0z m152 -1405
c75 -145 136 -266 136 -270 0 -3 -26 -6 -58 -6 -184 0 -448 -82 -592 -184 -72
-51 -74 -52 -59 -25 7 13 94 168 194 344 100 176 192 339 204 363 12 23 26 42
31 42 5 0 70 -119 144 -264z m386 -650 l0 -163 -297 -6 c-364 -7 -458 -23
-573 -97 -33 -21 -68 -33 -120 -40 -42 -6 -109 -26 -154 -45 -44 -19 -81 -33
-83 -32 -1 2 19 37 47 78 102 154 287 309 451 377 167 69 286 88 567 91 l162
1 0 -164z m350 119 c0 -11 -32 -68 -76 -137 l-44 -68 65 0 c63 0 65 -1 65 -25
l0 -25 -100 0 c-85 0 -100 2 -100 16 0 9 27 55 60 103 l60 86 -65 3 c-62 3
-65 4 -65 27 0 25 0 25 100 25 55 0 100 -2 100 -5z m287 -115 c60 -146 59
-142 33 -138 -17 2 -30 24 -61 97 -21 52 -41 96 -43 98 -2 2 -22 -40 -44 -94
-31 -75 -45 -99 -61 -101 -28 -4 -27 3 15 100 20 45 43 98 51 116 11 27 19 33
40 30 23 -3 31 -16 70 -108z m183 25 c0 -47 -1 -87 -2 -90 -7 -12 41 -34 74
-35 54 0 68 25 68 127 0 78 1 83 21 83 21 0 22 -3 17 -90 -8 -131 -41 -169
-136 -155 -64 9 -82 44 -82 158 0 80 2 87 20 87 18 0 20 -7 20 -85z m-470
-692 c96 -180 197 -368 223 -417 27 -50 69 -129 94 -176 25 -47 95 -176 155
-288 97 -178 109 -204 97 -220 -13 -15 -12 -16 3 -4 15 12 19 10 32 -15 8 -17
11 -35 6 -43 -5 -9 -2 -20 7 -29 13 -12 14 -11 8 8 -10 32 -2 26 47 -36 24
-32 71 -78 104 -102 78 -59 85 -66 47 -47 -17 8 -37 21 -45 28 -7 7 -22 20
-32 28 -18 14 -18 13 -12 -10 l7 -25 -14 23 c-7 12 -17 19 -22 15 -5 -4 -4 -1
3 8 10 13 8 19 -13 35 -14 10 -25 24 -25 31 0 17 -17 25 -26 12 -5 -8 -3 -9 6
-4 10 6 12 4 6 -11 -14 -34 -16 -63 -6 -69 5 -3 10 -27 10 -53 0 -36 -6 -52
-27 -74 -14 -15 -23 -31 -19 -35 4 -5 67 -11 139 -14 87 -4 46 -5 -123 -4
-206 2 -267 5 -315 19 -152 44 -332 160 -414 268 -22 29 -58 91 -80 138 -59
122 -220 422 -568 1053 -56 103 -103 190 -103 192 0 3 126 5 280 5 154 0 280
2 280 5 0 2 -16 34 -36 70 l-36 65 94 0 93 0 175 -327z m-1264 179 c60 -31
101 -68 132 -121 25 -43 27 -55 30 -178 l4 -133 94 0 94 0 -2 -52 -2 -53 -3
48 c-4 44 -6 47 -33 47 -28 0 -29 -1 -19 -27 12 -30 3 -508 -11 -596 -6 -39
-4 -49 9 -57 10 -6 -150 -10 -436 -10 l-453 0 0 355 0 355 90 0 90 0 0 118 c0
102 3 124 24 167 29 63 103 130 165 150 64 21 174 14 227 -13z m394 -1392
c-12 -16 -26 -30 -31 -30 -5 0 0 9 11 20 11 11 20 25 20 30 0 6 5 10 11 10 6
0 1 -13 -11 -30z m-53 -47 c0 -20 -15 -43 -28 -43 -5 0 -9 5 -9 10 0 6 5 9 11
8 6 -2 14 3 17 11 2 8 0 11 -6 7 -6 -3 -14 -1 -18 5 -4 7 -3 9 4 5 6 -3 13 -2
17 4 9 14 12 13 12 -7z m1623 -31 c3 -3 -5 -1 -17 2 -15 5 -23 3 -23 -5 0 -7
-2 -10 -5 -7 -3 3 -3 13 1 22 6 16 10 15 44 -12z m126 -100 c-6 -5 -56 21 -56
29 0 5 13 0 29 -9 16 -9 28 -18 27 -20z m-71 18 c3 -6 -1 -7 -9 -4 -18 7 -21
14 -7 14 6 0 13 -4 16 -10z m140 -29 c3 -5 2 -12 -3 -15 -5 -3 -9 1 -9 9 0 17
3 19 12 6z m160 -89 c-3 -3 -11 0 -18 7 -9 10 -8 11 6 5 10 -3 15 -9 12 -12z"/>
<path d="M4584 6018 c-4 -7 -4 -10 1 -6 4 4 15 2 24 -5 14 -11 14 -10 2 6 -16
20 -18 21 -27 5z"/>
<path d="M4535 5989 c-4 -6 -5 -12 -2 -15 2 -3 7 2 10 11 7 17 1 20 -8 4z"/>
<path d="M4640 5976 c0 -2 8 -10 18 -17 15 -13 16 -12 3 4 -13 16 -21 21 -21
13z"/>
<path d="M4723 5885 c0 -8 4 -12 8 -10 3 3 13 -3 20 -12 12 -15 12 -16 -3 -10
-10 3 -20 3 -22 -2 -3 -4 8 -7 25 -7 l29 0 -27 28 c-31 33 -30 32 -30 13z"/>
<path d="M4462 5843 c3 -11 -22 -56 -29 -50 -2 3 0 15 7 26 19 36 4 23 -25
-21 -26 -39 -26 -41 -5 -23 22 19 23 19 16 1 -5 -15 -4 -16 6 -8 24 20 49 70
38 77 -6 4 -9 3 -8 -2z"/>
<path d="M4803 5806 c0 -8 4 -13 8 -11 3 3 13 -3 20 -12 12 -15 12 -16 -3 -10
-10 3 -20 2 -22 -2 -3 -5 5 -7 17 -6 12 0 31 -3 42 -8 11 -5 16 -5 10 -1 -5 5
-24 22 -41 37 -21 19 -31 23 -31 13z"/>
<path d="M4362 5711 c-21 -28 -21 -30 -3 -28 11 1 17 5 14 10 -2 4 1 15 8 23
6 8 10 17 7 19 -2 3 -14 -8 -26 -24z"/>
<path d="M4887 5730 c8 -8 9 -19 3 -30 -6 -12 -5 -17 5 -17 8 0 11 7 7 16 -4
13 -1 12 16 -3 12 -11 24 -17 26 -15 1 2 -13 17 -33 33 -20 17 -31 24 -24 16z"/>
<path d="M4969 5648 c7 -10 9 -18 4 -18 -5 0 -10 -6 -10 -13 0 -8 6 -14 13
-14 7 0 10 7 6 16 -5 14 -3 14 11 2 9 -7 14 -17 11 -22 -3 -5 2 -6 10 -3 9 3
16 1 16 -5 0 -6 -4 -11 -10 -11 -5 0 -10 -4 -10 -10 0 -16 17 -11 24 7 6 16 0
23 -54 68 -19 15 -21 16 -11 3z"/>
<path d="M4986 5560 c3 -14 10 -29 15 -34 14 -16 10 6 -7 34 l-15 25 7 -25z"/>
<path d="M4973 5508 c1 -31 3 -34 13 -20 7 9 9 19 5 22 -5 3 -10 12 -13 20 -3
8 -5 -2 -5 -22z"/>
<path d="M4889 5438 c-5 -11 -6 -68 -1 -64 6 6 11 66 5 66 -1 0 -3 -1 -4 -2z"/>
<path d="M4272 5330 c0 -19 2 -27 5 -17 2 9 2 25 0 35 -3 9 -5 1 -5 -18z"/>
<path d="M4820 5345 c-23 -13 -23 -14 -5 -21 11 -5 20 -3 23 4 2 7 10 12 18
12 8 0 14 5 14 10 0 13 -19 11 -50 -5z"/>
<path d="M4869 5331 c-8 -18 -19 -29 -26 -26 -7 2 -13 0 -13 -5 0 -6 -5 -9
-12 -7 -12 2 -20 -71 -8 -78 9 -6 50 51 50 70 0 8 3 15 8 15 13 0 30 37 22 49
-5 9 -12 3 -21 -18z m-19 -59 c0 -1 -8 -11 -17 -22 -18 -18 -18 -18 -18 4 0
14 6 22 18 22 9 0 17 -2 17 -4z"/>
<path d="M4768 5193 c7 -3 16 -2 19 1 4 3 -2 6 -13 5 -11 0 -14 -3 -6 -6z"/>
<path d="M4786 5175 c-14 -13 -26 -31 -26 -40 0 -8 -9 -24 -20 -35 -11 -11
-20 -26 -20 -32 1 -7 6 -3 13 10 7 12 16 20 19 17 3 -4 11 10 18 29 6 20 15
36 18 36 4 0 13 9 20 20 16 26 11 25 -22 -5z"/>
<path d="M4740 5155 c0 -14 2 -25 4 -25 2 0 6 11 8 25 3 14 1 25 -3 25 -5 0
-9 -11 -9 -25z"/>
<path d="M4716 5043 c-4 -5 -22 -8 -38 -8 -19 0 -33 -6 -35 -15 -4 -12 -3 -13
5 -1 8 11 11 9 17 -8 9 -28 17 -27 43 9 21 28 25 40 8 23z"/>
<path d="M4581 4865 c-1 -15 -3 -17 -10 -6 -6 8 -8 0 -7 -25 1 -33 -2 -39 -24
-44 l-25 -6 27 -6 c29 -6 42 10 31 39 -4 10 -2 14 5 10 6 -4 21 7 33 25 21 31
22 32 2 15 -21 -18 -21 -18 -26 0 -4 16 -5 16 -6 -2z"/>
<path d="M4464 4625 c-9 -14 -15 -27 -13 -30 3 -2 12 10 21 26 21 36 15 39 -8
4z"/>
<path d="M4425 4571 c-3 -12 -10 -19 -15 -16 -4 3 -6 -4 -3 -16 5 -19 7 -18
20 11 7 18 11 35 9 37 -2 3 -7 -5 -11 -16z"/>
<path d="M4344 4437 c1 -21 -3 -31 -12 -29 -8 1 -11 -2 -6 -9 5 -9 13 -5 26
10 21 27 22 35 5 49 -10 9 -13 4 -13 -21z"/>
<path d="M7100 5220 c0 -33 4 -60 8 -60 4 0 9 27 10 60 2 36 -2 60 -8 60 -6 0
-10 -26 -10 -60z"/>
<path d="M7073 5083 c-12 -13 -19 -23 -14 -23 10 0 46 39 40 43 -2 2 -14 -7
-26 -20z"/>
<path d="M7065 3359 c-4 -6 -5 -12 -2 -15 2 -3 7 2 10 11 7 17 1 20 -8 4z"/>
<path d="M7070 3311 c0 -10 19 -25 25 -20 1 2 -3 10 -11 17 -8 7 -14 8 -14 3z"/>
<path d="M5001 4593 c-18 -9 -45 -34 -60 -56 -23 -37 -26 -51 -29 -152 l-4
-112 177 -6 c97 -4 181 -5 186 -1 12 7 11 160 -2 207 -12 43 -59 101 -100 123
-37 19 -126 18 -168 -3z"/>
<path d="M5042 4050 c-33 -14 -56 -74 -42 -113 5 -17 18 -39 26 -49 15 -16 15
-23 0 -85 -9 -37 -19 -76 -22 -85 -5 -16 3 -18 80 -18 60 0 86 4 86 12 0 6 -9
44 -20 84 l-21 72 27 39 c60 88 -15 182 -114 143z"/>
</g>
</svg>
