<?xml version="1.0" encoding="utf-8"?>
<!-- Generator: Adobe Illustrator 27.5.0, SVG Export Plug-In . SVG Version: 6.00 Build 0)  -->
<svg version="1.1" xmlns="http://www.w3.org/2000/svg" xmlns:xlink="http://www.w3.org/1999/xlink" x="0px" y="0px"
	 viewBox="0 0 500 500" style="enable-background:new 0 0 500 500;" xml:space="preserve">
<g id="Background_Complete">
	<g>
		<rect y="382.398" style="fill:#EBEBEB;" width="500" height="0.25"/>
		<rect x="131.471" y="397.824" style="fill:#EBEBEB;" width="33.122" height="0.25"/>
		<rect x="250.152" y="395.111" style="fill:#EBEBEB;" width="8.693" height="0.25"/>
		<rect x="52.459" y="390.888" style="fill:#EBEBEB;" width="19.192" height="0.25"/>
		<rect x="389.696" y="389.208" style="fill:#EBEBEB;" width="26.082" height="0.25"/>
		<rect x="357.349" y="389.208" style="fill:#EBEBEB;" width="23.444" height="0.25"/>
		<rect x="356.225" y="401.208" style="fill:#EBEBEB;" width="93.676" height="0.25"/>
		<path style="fill:#EBEBEB;" d="M237.014,337.8H43.915c-3.147,0-5.708-2.561-5.708-5.708V60.66c0-3.147,2.561-5.708,5.708-5.708
			h193.099c3.146,0,5.707,2.561,5.707,5.708v271.432C242.721,335.239,240.16,337.8,237.014,337.8z M43.915,55.203
			c-3.01,0-5.458,2.448-5.458,5.458v271.432c0,3.01,2.448,5.458,5.458,5.458h193.099c3.009,0,5.457-2.448,5.457-5.458V60.66
			c0-3.009-2.448-5.458-5.457-5.458H43.915z"/>
		<path style="fill:#EBEBEB;" d="M453.31,337.8H260.212c-3.147,0-5.707-2.561-5.707-5.708V60.66c0-3.147,2.561-5.708,5.707-5.708
			H453.31c3.148,0,5.708,2.561,5.708,5.708v271.432C459.019,335.239,456.458,337.8,453.31,337.8z M260.212,55.203
			c-3.009,0-5.457,2.448-5.457,5.458v271.432c0,3.01,2.448,5.458,5.457,5.458H453.31c3.01,0,5.458-2.448,5.458-5.458V60.66
			c0-3.009-2.448-5.458-5.458-5.458H260.212z"/>
	</g>
	<g>
		<g>
			<g>
				
					<rect x="318.605" y="276.383" transform="matrix(-1 -1.224647e-16 1.224647e-16 -1 660.7638 655.8041)" style="fill:#F0F0F0;" width="23.553" height="103.039"/>
				
					<rect x="233.944" y="379.422" transform="matrix(-1 -1.224647e-16 1.224647e-16 -1 571.5804 761.8198)" style="fill:#F0F0F0;" width="103.692" height="2.977"/>
				<rect x="229.422" y="276.383" style="fill:#F5F5F5;" width="89.183" height="103.039"/>
				<rect x="238.682" y="282.165" style="fill:#F0F0F0;" width="70.663" height="43.438"/>
				<rect x="238.682" y="330.201" style="fill:#F0F0F0;" width="70.663" height="43.438"/>
				<path style="fill:#F5F5F5;" d="M292.33,289.731h-36.634c-4.798,0-8.688-3.89-8.688-8.688l0,0h54.009l0,0
					C301.017,285.842,297.128,289.731,292.33,289.731z"/>
				<path style="fill:#F5F5F5;" d="M292.33,337.768h-36.634c-4.798,0-8.688-3.89-8.688-8.688l0,0h54.009l0,0
					C301.017,333.878,297.128,337.768,292.33,337.768z"/>
			</g>
		</g>
		<g>
			<g>
				
					<rect x="414.78" y="276.383" transform="matrix(-1 -1.224647e-16 1.224647e-16 -1 853.1138 655.8041)" style="fill:#F0F0F0;" width="23.553" height="103.039"/>
				
					<rect x="330.119" y="379.422" transform="matrix(-1 -1.224647e-16 1.224647e-16 -1 763.9304 761.8198)" style="fill:#F0F0F0;" width="103.692" height="2.977"/>
				<rect x="325.597" y="276.383" style="fill:#F5F5F5;" width="89.183" height="103.039"/>
				<rect x="334.857" y="282.165" style="fill:#F0F0F0;" width="70.663" height="43.438"/>
				<rect x="334.857" y="330.201" style="fill:#F0F0F0;" width="70.663" height="43.438"/>
				<path style="fill:#F5F5F5;" d="M388.505,289.731h-36.634c-4.798,0-8.688-3.89-8.688-8.688l0,0h54.009l0,0
					C397.192,285.842,393.303,289.731,388.505,289.731z"/>
				<path style="fill:#F5F5F5;" d="M388.505,337.768h-36.634c-4.798,0-8.688-3.89-8.688-8.688l0,0h54.009l0,0
					C397.192,333.878,393.303,337.768,388.505,337.768z"/>
			</g>
		</g>
	</g>
	<g>
		
			<rect x="111.42" y="91.319" transform="matrix(-1 -1.224647e-16 1.224647e-16 -1 263.176 229.2628)" style="fill:#E6E6E6;" width="40.335" height="46.625"/>
		
			<rect x="106.821" y="91.319" transform="matrix(-1 -1.224647e-16 1.224647e-16 -1 257.5021 229.2628)" style="fill:#F5F5F5;" width="43.859" height="46.625"/>
		
			<rect x="109.113" y="96.376" transform="matrix(-1.836970e-16 1 -1 -1.836970e-16 243.3825 -14.1197)" style="fill:#FFFFFF;" width="39.277" height="36.511"/>
		<path style="fill:#F5F5F5;" d="M138.157,124.75v-1.425c0-10.389-8.422-18.811-18.811-18.811l0,0v1.425
			C119.345,116.328,127.768,124.75,138.157,124.75L138.157,124.75z"/>
	</g>
	<g>
		
			<rect x="286.634" y="84.058" transform="matrix(-1 -1.224647e-16 1.224647e-16 -1 724.9671 310.0125)" style="fill:#E6E6E6;" width="151.699" height="141.896"/>
		
			<rect x="281.932" y="84.058" transform="matrix(-1 -1.224647e-16 1.224647e-16 -1 718.0677 310.0125)" style="fill:#F0F0F0;" width="154.204" height="141.896"/>
		
			<rect x="286.634" y="225.954" transform="matrix(-1 -1.224647e-16 1.224647e-16 -1 724.9671 456.9645)" style="fill:#E6E6E6;" width="151.699" height="5.056"/>
		
			<rect x="274.098" y="225.954" transform="matrix(-1 -1.224647e-16 1.224647e-16 -1 702.4003 456.9645)" style="fill:#F0F0F0;" width="154.204" height="5.056"/>
		
			<rect x="295.703" y="84.487" transform="matrix(-1.836970e-16 1 -1 -1.836970e-16 514.0402 -204.0276)" style="fill:#FAFAFA;" width="126.662" height="141.038"/>
		<polygon style="fill:#FFFFFF;" points="389.56,218.336 366.072,91.674 327.369,91.674 350.857,218.336 		"/>
		<path style="fill:#F0F0F0;" d="M426.505,175.364c0.26,0,0.47-0.244,0.47-0.544V96.632c0-0.3-0.21-0.544-0.47-0.544
			c-0.26,0-0.47,0.244-0.47,0.544v78.189C426.035,175.12,426.246,175.364,426.505,175.364z"/>
		<polygon style="fill:#FFFFFF;" points="342.543,218.336 319.055,91.674 303.966,91.674 327.454,218.336 		"/>
		
			<rect x="225.602" y="154.588" transform="matrix(-1.836970e-16 1 -1 -1.836970e-16 443.939 -133.9265)" style="fill:#E6E6E6;" width="126.662" height="0.836"/>
		<polygon style="opacity:0.4;fill:#E6E6E6;" points="280.375,101.421 432.074,101.421 432.68,94.636 280.981,94.636 		"/>
		<polygon style="opacity:0.4;fill:#E6E6E6;" points="280.375,109.226 432.074,109.226 432.68,102.441 280.981,102.441 		"/>
		<polygon style="opacity:0.4;fill:#E6E6E6;" points="280.375,117.031 432.074,117.031 432.68,110.246 280.981,110.246 		"/>
		<polygon style="opacity:0.4;fill:#E6E6E6;" points="280.375,124.836 432.074,124.836 432.68,118.052 280.981,118.052 		"/>
		<polygon style="opacity:0.4;fill:#E6E6E6;" points="280.375,132.641 432.074,132.641 432.68,125.857 280.981,125.857 		"/>
		<polygon style="opacity:0.4;fill:#E6E6E6;" points="280.375,140.446 432.074,140.446 432.68,133.662 280.981,133.662 		"/>
		<polygon style="opacity:0.4;fill:#E6E6E6;" points="280.375,148.251 432.074,148.251 432.68,141.467 280.981,141.467 		"/>
		<polygon style="opacity:0.4;fill:#E6E6E6;" points="280.375,156.057 432.074,156.057 432.68,149.272 280.981,149.272 		"/>
		<polygon style="opacity:0.4;fill:#E6E6E6;" points="280.375,163.862 432.074,163.862 432.68,157.077 280.981,157.077 		"/>
	</g>
	<g>
		
			<rect x="82.821" y="177.897" transform="matrix(-1 -1.224647e-16 1.224647e-16 -1 197.1121 391.9064)" style="fill:#E6E6E6;" width="31.471" height="36.113"/>
		
			<rect x="79.259" y="177.897" transform="matrix(-1 -1.224647e-16 1.224647e-16 -1 192.4881 391.9064)" style="fill:#F5F5F5;" width="33.971" height="36.113"/>
		
			<rect x="81.033" y="181.814" transform="matrix(-1.836970e-16 1 -1 -1.836970e-16 292.1973 99.7091)" style="fill:#FFFFFF;" width="30.421" height="28.279"/>
		<path style="fill:#F5F5F5;" d="M103.529,196.505v-1.104c0-4.023-3.262-7.285-7.285-7.285l0,0c-4.024,0-7.285,3.262-7.285,7.285
			v1.104c0,4.023,3.262,7.285,7.285,7.285l0,0C100.268,203.79,103.529,200.529,103.529,196.505z"/>
	</g>
	<g>
		
			<rect x="161.32" y="151.298" transform="matrix(-1 -1.224647e-16 1.224647e-16 -1 365.8447 352.374)" style="fill:#E6E6E6;" width="43.205" height="49.777"/>
		
			<rect x="156.41" y="151.298" transform="matrix(-1 -1.224647e-16 1.224647e-16 -1 359.6437 352.374)" style="fill:#F5F5F5;" width="46.824" height="49.777"/>
		
			<rect x="158.856" y="156.698" transform="matrix(-1.836970e-16 1 -1 -1.836970e-16 356.0089 -3.6348)" style="fill:#FFFFFF;" width="41.932" height="38.979"/>
		<path style="fill:#F5F5F5;" d="M181.452,168.412l7.399,12.815c0.725,1.255-0.181,2.824-1.631,2.824h-14.798
			c-1.449,0-2.355-1.569-1.631-2.824l7.399-12.815C178.916,167.156,180.728,167.156,181.452,168.412z"/>
	</g>
	<g>
		<g>
			
				<rect x="90.023" y="307.517" transform="matrix(-1 -1.224647e-16 1.224647e-16 -1 203.7925 689.915)" style="fill:#E6E6E6;" width="23.746" height="74.881"/>
			<polygon style="fill:#F0F0F0;" points="94.534,382.398 90.023,382.398 90.023,369.569 99.262,369.569 			"/>
			
				<rect x="178.771" y="307.517" transform="matrix(-1 -1.224647e-16 1.224647e-16 -1 381.2875 689.915)" style="fill:#E6E6E6;" width="23.746" height="74.881"/>
			
				<rect x="90.023" y="307.517" transform="matrix(-1 -1.224647e-16 1.224647e-16 -1 272.7305 682.0428)" style="fill:#F0F0F0;" width="92.684" height="67.009"/>
			
				<rect x="90.801" y="314.438" transform="matrix(6.123234e-17 -1 1 6.123234e-17 -220.9156 449.2895)" style="fill:#E6E6E6;" width="46.771" height="41.329"/>
			
				<rect x="135.158" y="314.438" transform="matrix(6.123234e-17 -1 1 6.123234e-17 -176.5589 493.6461)" style="fill:#E6E6E6;" width="46.771" height="41.329"/>
			<path style="fill:#F0F0F0;" d="M154.455,315.306h8.177c3.552,0,6.947-1.46,9.39-4.039l0,0h-26.956h0
				C147.508,313.845,150.904,315.306,154.455,315.306z"/>
			<path style="fill:#F0F0F0;" d="M109.681,315.306h8.177c3.552,0,6.947-1.46,9.39-4.039l0,0h-26.956l0,0
				C102.734,313.845,106.129,315.306,109.681,315.306z"/>
			<polygon style="fill:#F0F0F0;" points="178.197,382.398 182.707,382.398 182.707,369.569 173.468,369.569 			"/>
		</g>
		<g>
			<path style="fill:#E0E0E0;" d="M153.754,297.483c0,2.84,2.302,5.142,5.142,5.142c2.84,0,5.143-2.302,5.143-5.142
				s-2.302-5.142-5.143-5.142C156.056,292.341,153.754,294.643,153.754,297.483z"/>
			<circle style="fill:#E0E0E0;" cx="161.23" cy="294.142" r="5.142"/>
			<path style="fill:#E0E0E0;" d="M127.947,298.309c0,2.84,2.302,5.142,5.143,5.142c2.84,0,5.142-2.302,5.142-5.142
				c0-2.84-2.302-5.143-5.142-5.143C130.249,293.167,127.947,295.469,127.947,298.309z"/>
			<circle style="fill:#E0E0E0;" cx="168.113" cy="294.981" r="6.306"/>
			<path style="fill:#E0E0E0;" d="M149.304,289.172c0,3.482,2.823,6.305,6.305,6.305c3.482,0,6.305-2.823,6.305-6.305
				s-2.823-6.306-6.305-6.306C152.127,282.866,149.304,285.69,149.304,289.172z"/>
			<path style="fill:#E0E0E0;" d="M139.304,290.783c0,3.482,2.823,6.306,6.305,6.306c3.482,0,6.305-2.823,6.305-6.306
				c0-3.482-2.823-6.305-6.305-6.305C142.127,284.478,139.304,287.301,139.304,290.783z"/>
			<path style="fill:#E0E0E0;" d="M143.533,295.872c0,3.335,2.703,6.038,6.038,6.038c3.335,0,6.038-2.703,6.038-6.038
				c0-3.335-2.703-6.038-6.038-6.038C146.236,289.833,143.533,292.537,143.533,295.872z"/>
			<path style="fill:#E0E0E0;" d="M133.089,295.477c0,3.577,2.9,6.477,6.477,6.477c3.577,0,6.477-2.9,6.477-6.477
				c0-3.577-2.9-6.477-6.477-6.477C135.989,289,133.089,291.9,133.089,295.477z"/>
			<path style="fill:#F0F0F0;" d="M178.174,297.483c0,0-0.706,10.033-27.775,10.033c-27.069,0-27.775-10.033-27.775-10.033H178.174z
				"/>
		</g>
	</g>
</g>
<g id="Background_Simple" style="display:none;">
	<g style="display:inline;">
		<path style="fill:#407BFF;" d="M420.574,323.707c-10.389,17.571-43.781,24.016-61.461,22.894
			c-20.34-1.291-36.729-13.754-50.936-25.964c-17.921-15.403-29.234-23.665-55.032-19.519
			c-22.698,3.648-44.226,11.592-67.257,13.036c-47.095,2.951-101.443-4.194-114.596-52.12
			c-12.065-43.957,14.434-88.018,66.654-87.822c44.088,0.165,43.965,55.045,92.326,37.421
			c45.039-16.413,52.022-79.757,107.866-74.909c55.545,4.822,19.486,70.204,21.037,105.703c0.996,22.786,27.39,12.514,44.85,21.869
			C425.132,275.605,433.716,301.478,420.574,323.707z"/>
		<path style="opacity:0.9;fill:#FFFFFF;" d="M420.574,323.707c-10.389,17.571-43.781,24.016-61.461,22.894
			c-20.34-1.291-36.729-13.754-50.936-25.964c-17.921-15.403-29.234-23.665-55.032-19.519
			c-22.698,3.648-44.226,11.592-67.257,13.036c-47.095,2.951-101.443-4.194-114.596-52.12
			c-12.065-43.957,14.434-88.018,66.654-87.822c44.088,0.165,43.965,55.045,92.326,37.421
			c45.039-16.413,52.022-79.757,107.866-74.909c55.545,4.822,19.486,70.204,21.037,105.703c0.996,22.786,27.39,12.514,44.85,21.869
			C425.132,275.605,433.716,301.478,420.574,323.707z"/>
	</g>
	<g style="display:inline;">
		<g>
			<path style="fill:#407BFF;" d="M12213.703,152.048c-28.824-19.692-45.897-61.437-84.992-63.162
				c-19.114-0.843-31.367,12.989-49.053,16.478c-15.207,3-25.504-4.736-39.856-4.777c-35.715-0.101-60.992,24.026-51.564,61.476
				c9.006,35.772,30.211,70.765,79.982,96.299c74.038,37.983,142.262,40.627,199.784,3.799
				c47.552-30.444,53.854-93.877,32.299-112.01C12283.435,135.961,12241.143,170.793,12213.703,152.048z"/>
		</g>
		<g style="opacity:0.9;">
			<path style="fill:#FFFFFF;" d="M12213.703,152.048c-28.824-19.692-45.897-61.437-84.992-63.162
				c-19.114-0.843-31.367,12.989-49.053,16.478c-15.207,3-25.504-4.736-39.856-4.777c-35.715-0.101-60.992,24.026-51.564,61.476
				c9.006,35.772,30.211,70.765,79.982,96.299c74.038,37.983,142.262,40.627,199.784,3.799
				c47.552-30.444,53.854-93.877,32.299-112.01C12283.435,135.961,12241.143,170.793,12213.703,152.048z"/>
		</g>
	</g>
	<g style="display:inline;">
		<path style="fill:#407BFF;" d="M12885.931,179.931c-52.773,21.871-91.898-45.863-135.607-56.814
			c-53.488-13.401-96.907,35.48-80.909,86.701c13.719,43.921,55.175,42.911,87.514,65.033
			c44.161,30.21,62.775,76.389,119.735,90.309c110.05,26.895,142.647-131.355,116.184-214.316
			c-9.129-28.619-18.399-52.367-53.643-41.902C12907.23,118.437,12907.667,170.923,12885.931,179.931z"/>
		<path style="opacity:0.9;fill:#FFFFFF;" d="M12885.931,179.931c-52.773,21.871-91.898-45.863-135.607-56.814
			c-53.488-13.401-96.907,35.48-80.909,86.701c13.719,43.921,55.175,42.911,87.514,65.033
			c44.161,30.21,62.775,76.389,119.735,90.309c110.05,26.895,142.647-131.355,116.184-214.316
			c-9.129-28.619-18.399-52.367-53.643-41.902C12907.23,118.437,12907.667,170.923,12885.931,179.931z"/>
	</g>
	<g style="display:inline;">
		<path style="fill:#407BFF;" d="M13743.029,224.99c-32.418-95.598-174.293-106.711-258.072-96.977
			c-39.264,4.562-84.563,15.103-107.808,50.175c-25.653,38.709-20.09,93.559,16.132,123.289
			c48.631,39.915,74.828-0.243,118.661-19.191c49.876-21.561,54.315,24.808,83.133,53.654
			C13666.141,407.075,13771.176,307.993,13743.029,224.99z M13670.165,310.364c0.025,0.003,0.072,0.009,0.15,0.018
			C13670.245,310.374,13670.193,310.367,13670.165,310.364z M13671.998,310.588c0.05,0.006,0.101,0.012,0.142,0.017
			C13672.096,310.6,13672.048,310.595,13671.998,310.588z M13672.43,310.641C13672.462,310.645,13672.461,310.645,13672.43,310.641
			L13672.43,310.641z M13672.207,310.614c0.107,0.013,0.177,0.022,0.213,0.026
			C13672.38,310.635,13672.304,310.626,13672.207,310.614z"/>
		<path style="opacity:0.9;fill:#FFFFFF;" d="M13743.029,224.99c-32.418-95.598-174.293-106.711-258.072-96.977
			c-39.264,4.562-84.563,15.103-107.808,50.175c-25.653,38.709-20.09,93.559,16.132,123.289
			c48.631,39.915,74.828-0.243,118.661-19.191c49.876-21.561,54.315,24.808,83.133,53.654
			C13666.141,407.075,13771.176,307.993,13743.029,224.99z M13670.165,310.364c0.025,0.003,0.072,0.009,0.15,0.018
			C13670.245,310.374,13670.193,310.367,13670.165,310.364z M13671.998,310.588c0.05,0.006,0.101,0.012,0.142,0.017
			C13672.096,310.6,13672.048,310.595,13671.998,310.588z M13672.43,310.641C13672.462,310.645,13672.461,310.645,13672.43,310.641
			L13672.43,310.641z M13672.207,310.614c0.107,0.013,0.177,0.022,0.213,0.026
			C13672.38,310.635,13672.304,310.626,13672.207,310.614z"/>
	</g>
</g>
<g id="Shadow_1_">
	<ellipse id="_x3C_Path_x3E__64_" style="fill:#F5F5F5;" cx="250" cy="416.238" rx="193.889" ry="11.323"/>
</g>
<g id="Gear">
	<g>
		<g>
			<g>
				<path style="fill:#407BFF;" d="M307.768,119.901c-0.82-2.709-1.899-5.305-3.214-7.757l2.005-6.553l-12.939-12.939l-6.553,2.005
					c-2.452-1.314-5.047-2.394-7.757-3.214l-3.216-6.05h-18.299l-3.216,6.05c-2.709,0.82-5.305,1.899-7.757,3.214l-6.553-2.005
					l-12.939,12.939l2.005,6.553c-1.315,2.452-2.394,5.047-3.214,7.757l-6.05,3.216v18.299l6.05,3.216
					c0.82,2.709,1.899,5.305,3.214,7.757l-2.005,6.553l12.939,12.939l6.553-2.005c2.452,1.314,5.048,2.394,7.757,3.214l3.216,6.05
					h18.299l3.216-6.05c2.709-0.82,5.305-1.899,7.757-3.214l6.553,2.005l12.939-12.939l-2.005-6.553
					c1.314-2.452,2.394-5.047,3.214-7.757l6.05-3.216v-18.299L307.768,119.901z M266.944,158.259
					c-14.355,0-25.993-11.637-25.993-25.993s11.637-25.993,25.993-25.993c14.355,0,25.993,11.637,25.993,25.993
					S281.299,158.259,266.944,158.259z"/>
				<path style="opacity:0.2;fill:#FFFFFF;" d="M307.768,119.901c-0.82-2.709-1.899-5.305-3.214-7.757l2.005-6.553l-12.939-12.939
					l-6.553,2.005c-2.452-1.314-5.047-2.394-7.757-3.214l-3.216-6.05h-18.299l-3.216,6.05c-2.709,0.82-5.305,1.899-7.757,3.214
					l-6.553-2.005l-12.939,12.939l2.005,6.553c-1.315,2.452-2.394,5.047-3.214,7.757l-6.05,3.216v18.299l6.05,3.216
					c0.82,2.709,1.899,5.305,3.214,7.757l-2.005,6.553l12.939,12.939l6.553-2.005c2.452,1.314,5.048,2.394,7.757,3.214l3.216,6.05
					h18.299l3.216-6.05c2.709-0.82,5.305-1.899,7.757-3.214l6.553,2.005l12.939-12.939l-2.005-6.553
					c1.314-2.452,2.394-5.047,3.214-7.757l6.05-3.216v-18.299L307.768,119.901z M266.944,158.259
					c-14.355,0-25.993-11.637-25.993-25.993s11.637-25.993,25.993-25.993c14.355,0,25.993,11.637,25.993,25.993
					S281.299,158.259,266.944,158.259z"/>
			</g>
			<path style="fill:#407BFF;" d="M266.944,123.655c-4.756,0-8.612,3.856-8.612,8.612s3.856,8.612,8.612,8.612
				c4.756,0,8.612-3.856,8.612-8.612S271.7,123.655,266.944,123.655z"/>
		</g>
		<g>
			<path style="fill:#407BFF;" d="M438.016,148.926c-1.168-3.873-2.715-7.583-4.588-11.094c0,0,0-0.001-0.001-0.001l2.862-9.356
				l-18.493-18.493l-9.362,2.864c0,0-0.001,0-0.001,0c-3.504-1.892-7.215-3.431-11.09-4.599c-0.001,0-0.001,0-0.002-0.001
				l-4.591-8.639h-26.153l-4.593,8.641c-3.872,1.159-7.582,2.706-11.093,4.597c0,0,0,0,0,0l-9.361-2.864l-18.493,18.493l2.861,9.354
				c-0.001,0.001-0.001,0.002-0.002,0.003c-1.873,3.511-3.421,7.222-4.589,11.096l-8.645,4.595v26.152l8.643,4.594
				c0,0.001,0.001,0.003,0.001,0.004c1.168,3.874,2.716,7.586,4.59,11.09c0.001,0.001,0.002,0.003,0.002,0.004l-2.862,9.356
				l18.493,18.492l9.365-2.865c3.509,1.89,7.217,3.436,11.088,4.595l4.595,8.645h26.153l4.593-8.642c0,0,0,0,0.001,0
				c3.874-1.168,7.585-2.707,11.087-4.598l9.366,2.865l18.493-18.492l-2.863-9.357c0-0.001,0.001-0.002,0.001-0.002
				c1.874-3.504,3.422-7.215,4.59-11.09c0-0.001,0-0.002,0.001-0.003l8.646-4.595v-26.152L438.016,148.926z M379.671,214.005
				c-26.179,0-47.403-21.223-47.403-47.403c0-26.191,21.223-47.414,47.403-47.414c26.18,0,47.414,21.223,47.414,47.414
				C427.085,192.783,405.85,214.005,379.671,214.005z"/>
			<g>
				<path style="fill:#407BFF;" d="M379.672,125.825c-22.482,0-40.772,18.291-40.772,40.773s18.291,40.773,40.772,40.773
					c22.483,0,40.773-18.291,40.773-40.773S402.155,125.825,379.672,125.825z M379.672,201.94
					c-19.487,0-35.341-15.855-35.341-35.342c0-19.488,15.854-35.342,35.341-35.342c19.488,0,35.342,15.854,35.342,35.342
					C415.014,186.086,399.16,201.94,379.672,201.94z"/>
				<path style="opacity:0.2;" d="M379.672,125.825c-22.482,0-40.772,18.291-40.772,40.773s18.291,40.773,40.772,40.773
					c22.483,0,40.773-18.291,40.773-40.773S402.155,125.825,379.672,125.825z M379.672,201.94
					c-19.487,0-35.341-15.855-35.341-35.342c0-19.488,15.854-35.342,35.341-35.342c19.488,0,35.342,15.854,35.342,35.342
					C415.014,186.086,399.16,201.94,379.672,201.94z"/>
			</g>
		</g>
		<g>
			<path style="fill:#407BFF;" d="M286,236.163c-0.553,0-1-0.448-1-1v-2c0-0.552,0.447-1,1-1s1,0.448,1,1v2
				C287,235.715,286.553,236.163,286,236.163z"/>
			<path style="fill:#407BFF;" d="M270.429,210.322c-0.917-0.597-1.628-1.443-2.056-2.448c-0.217-0.508-0.806-0.744-1.311-0.528
				c-0.509,0.216-0.745,0.804-0.528,1.312c0.584,1.371,1.554,2.525,2.804,3.34c0.169,0.109,0.357,0.162,0.545,0.162
				c0.327,0,0.647-0.16,0.839-0.455C271.022,211.243,270.892,210.624,270.429,210.322z"/>
			<path style="fill:#407BFF;" d="M266.943,197.832c0.553,0,1-0.448,1-1v-3.834c0-0.552-0.447-1-1-1c-0.553,0-1,0.448-1,1v3.834
				C265.943,197.384,266.391,197.832,266.943,197.832z"/>
			<path style="fill:#407BFF;" d="M277.35,211.203h-3.835c-0.553,0-1,0.448-1,1c0,0.552,0.447,1,1,1h3.835c0.553,0,1-0.448,1-1
				C278.35,211.65,277.902,211.203,277.35,211.203z"/>
			<path style="fill:#407BFF;" d="M267.943,204.501v-3.835c0-0.552-0.447-1-1-1c-0.553,0-1,0.448-1,1v3.835c0,0.553,0.447,1,1,1
				C267.496,205.501,267.943,205.054,267.943,204.501z"/>
			<path style="fill:#407BFF;" d="M286.939,217.7c-0.07-0.547-0.568-0.936-1.119-0.865c-0.548,0.071-0.936,0.572-0.865,1.12
				c0.03,0.232,0.046,0.468,0.046,0.709v2.996c0,0.553,0.447,1,1,1s1-0.447,1-1v-2.996C287,218.337,286.978,218.016,286.939,217.7z"
				/>
			<path style="fill:#407BFF;" d="M286,224.494c-0.553,0-1,0.448-1,1v3.835c0,0.552,0.447,1,1,1s1-0.448,1-1v-3.835
				C287,224.942,286.553,224.494,286,224.494z"/>
			<path style="fill:#407BFF;" d="M285.134,213.727c-0.99-1.121-2.275-1.912-3.716-2.285c-0.535-0.139-1.08,0.182-1.219,0.717
				c-0.139,0.534,0.182,1.08,0.717,1.219c1.053,0.273,1.993,0.852,2.718,1.673c0.198,0.224,0.474,0.338,0.75,0.338
				c0.235,0,0.472-0.083,0.662-0.251C285.46,214.773,285.499,214.141,285.134,213.727z"/>
			<path style="fill:#407BFF;" d="M266.943,190.124c-0.553,0-1-0.448-1-1v-2c0-0.552,0.447-1,1-1c0.553,0,1,0.448,1,1v2
				C267.943,189.677,267.496,190.124,266.943,190.124z"/>
		</g>
	</g>
</g>
<g id="Desk">
	<g>
		<g>
			<g>
				<rect x="101.832" y="286.51" style="fill:#407BFF;" width="231.535" height="3.708"/>
				<g>
					
						<rect x="333.367" y="286.51" transform="matrix(-1 -1.224647e-16 1.224647e-16 -1 716.9766 576.7286)" style="fill:#407BFF;" width="50.243" height="3.708"/>
					
						<rect x="333.367" y="286.51" transform="matrix(-1 -1.224647e-16 1.224647e-16 -1 716.9766 576.7286)" style="opacity:0.2;" width="50.243" height="3.708"/>
				</g>
			</g>
			<g>
				<polygon style="fill:#407BFF;" points="366.835,294.191 118.606,294.191 110.306,290.218 375.135,290.218 				"/>
				<polygon style="opacity:0.6;fill:#FFFFFF;" points="366.835,294.191 118.606,294.191 110.306,290.218 375.135,290.218 				"/>
			</g>
			<polygon style="fill:#407BFF;" points="126.113,294.191 126.113,412.527 129.291,412.527 133.293,294.191 			"/>
			<polygon style="fill:#407BFF;" points="163.648,294.191 163.648,412.527 166.826,412.527 170.828,294.191 			"/>
			<polygon style="fill:#407BFF;" points="366.835,294.191 366.835,412.527 363.657,412.527 359.655,294.191 			"/>
			<polygon style="fill:#407BFF;" points="329.3,294.191 329.3,412.527 326.122,412.527 322.12,294.191 			"/>
		</g>
		<g>
			<g>
				<polygon style="fill:#407BFF;" points="253.742,241.592 243.295,284.158 243.291,284.158 243,286.511 315.085,286.511 
					315.377,284.158 325.824,241.592 				"/>
				<polygon style="opacity:0.3;" points="253.742,241.592 243.295,284.158 243.291,284.158 243,286.511 315.085,286.511 
					315.377,284.158 325.824,241.592 				"/>
			</g>
			<polygon style="fill:#407BFF;" points="323.605,241.592 251.523,241.592 241.076,284.158 313.158,284.158 			"/>
			<polygon style="fill:#FFFFFF;" points="311.634,282.213 321.126,243.537 253.048,243.537 243.555,282.213 			"/>
			<g>
				<polygon style="fill:#407BFF;" points="294.376,284.158 294.085,286.51 214.708,286.51 214.999,284.158 				"/>
				<polygon style="opacity:0.6;fill:#FFFFFF;" points="294.376,284.158 294.085,286.51 214.708,286.51 214.999,284.158 				"/>
			</g>
		</g>
		<path style="fill:#407BFF;" d="M144.44,278.772c0-3.087-2.446-5.644-5.626-6.097v-1.154c0-0.27-0.235-0.489-0.525-0.489h-10.804
			c-0.29,0-0.525,0.219-0.525,0.489v14.989h11.853v-1.642C141.994,284.416,144.44,281.858,144.44,278.772z M138.814,282.935v-8.327
			c2.047,0.429,3.584,2.129,3.584,4.163C142.398,280.806,140.861,282.507,138.814,282.935z"/>
		<g>
			<polygon style="fill:#263238;" points="346.564,286.511 356.599,286.511 353.626,264.52 346.564,264.52 			"/>
			<g>
				<polygon style="fill:#407BFF;" points="331.839,286.511 350.855,286.511 354.395,260.772 335.379,260.772 				"/>
				<polygon style="opacity:0.3;" points="331.839,286.511 350.855,286.511 354.395,260.772 335.379,260.772 				"/>
			</g>
			<polygon style="fill:#407BFF;" points="329.3,286.511 349.088,286.511 352.628,260.772 332.84,260.772 			"/>
			<polygon style="opacity:0.4;fill:#FFFFFF;" points="347.339,284.482 350.321,262.8 334.59,262.8 331.608,284.482 			"/>
		</g>
	</g>
</g>
<g id="Character_1_">
	<g>
		<g>
			<path style="fill:#B55B52;" d="M197.537,248.507l-0.815,0.888l-0.885,0.999c-0.592,0.675-1.172,1.37-1.735,2.078
				c-1.119,1.422-2.206,2.872-3.211,4.358c-2.018,2.968-3.746,6.073-4.98,9.241c-0.606,1.587-1.105,3.182-1.416,4.776
				c-0.163,0.922-0.266,1.32-0.312,1.709c-0.052,0.385-0.059,0.649-0.001,0.942c0.055,0.571,0.755,1.495,2.035,2.256
				c0.617,0.401,1.349,0.739,2.123,1.067c0.389,0.156,0.79,0.307,1.197,0.452c0.387,0.136,0.867,0.282,1.16,0.396l0.012,5.516
				c-0.696,0.101-1.205,0.177-1.802,0.213c-0.577,0.043-1.157,0.054-1.743,0.038c-1.174-0.019-2.368-0.169-3.608-0.455
				c-1.229-0.304-2.51-0.757-3.78-1.515c-1.253-0.757-2.522-1.823-3.481-3.24c-0.958-1.407-1.567-3.075-1.816-4.658
				c-0.08-0.405-0.103-0.787-0.129-1.176c-0.034-0.395-0.034-0.769-0.024-1.138l0.013-0.56c0.006-0.185,0.025-0.302,0.038-0.456
				l0.086-0.874c0.256-2.325,0.752-4.58,1.439-6.734c1.355-4.32,3.342-8.277,5.669-11.922c1.161-1.828,2.419-3.573,3.769-5.246
				c0.671-0.839,1.362-1.662,2.077-2.474c0.358-0.407,0.722-0.809,1.106-1.205c0.397-0.414,0.732-0.758,1.243-1.252L197.537,248.507
				z"/>
			<path style="fill:#B55B52;" d="M188.648,277.545l4.657-3.415l2.656,9.579c0,0-4.127,1.531-7.285-0.526L188.648,277.545z"/>
			<polygon style="fill:#B55B52;" points="199.776,271.832 201.6,279.852 195.961,283.709 193.305,274.13 			"/>
			<path style="fill:#263238;" d="M229.251,211.747c-0.206,0.593-0.059,1.183,0.328,1.318c0.388,0.135,0.869-0.237,1.075-0.829
				c0.206-0.593,0.059-1.183-0.328-1.318C229.939,210.783,229.457,211.154,229.251,211.747z"/>
			<path style="fill:#A02724;" d="M229.137,212.911c0,0,0.158,3.889,1.068,6.055c-1.389,0.614-3.017-0.454-3.017-0.454
				L229.137,212.911z"/>
			<path style="fill:#263238;" d="M228.293,207.731c0.071,0.025,0.149,0.028,0.226,0.005c1.559-0.464,2.59,0.371,2.633,0.407
				c0.156,0.13,0.388,0.109,0.519-0.046c0.13-0.156,0.111-0.386-0.043-0.518c-0.055-0.046-1.365-1.133-3.32-0.55
				c-0.195,0.058-0.306,0.263-0.248,0.459C228.096,207.606,228.184,207.694,228.293,207.731z"/>
			<path style="fill:#B55B52;" d="M207.324,213.926c1.116,5.693,2.23,16.124-1.753,19.923c0,0,1.556,5.775,12.135,5.775
				c11.632,0,5.559-5.775,5.559-5.775c-6.349-1.516-6.185-6.226-5.079-10.65L207.324,213.926z"/>
			<path style="fill:#263238;" d="M204.047,235.832c-0.834-1.828-1.752-3.92,0.147-4.576c2.089-0.721,13.525-1.456,17.468-0.103
				c3.943,1.354,2.825,5.061,2.825,5.061L204.047,235.832z"/>
			<path style="fill:#B55B52;" d="M243.983,245.59c2.443,4.414,5.075,8.948,7.741,13.312c2.674,4.38,5.446,8.693,8.429,12.659
				c0.741,1.008,1.502,1.949,2.267,2.894c0.375,0.492,0.778,0.899,1.167,1.348l0.587,0.662l0.147,0.166l0.073,0.083l0.024,0.023
				c0.028,0.029,0.053,0.062,0.076,0.098c0.212,0.28,0.823,0.669,1.634,0.981c0.817,0.318,1.834,0.534,2.916,0.713
				c4.395,0.626,9.666,0.313,14.609-0.172l1.518,5.303c-1.351,0.596-2.613,1.049-3.947,1.497c-1.32,0.453-2.663,0.838-4.035,1.17
				c-2.748,0.657-5.589,1.131-8.677,1.16c-1.548,0.02-3.16-0.11-4.889-0.483c-1.717-0.393-3.612-1.016-5.44-2.425l-0.669-0.552
				l-0.162-0.14l-0.098-0.096l-0.195-0.191l-0.781-0.767c-0.511-0.514-1.063-1.021-1.526-1.548c-0.964-1.046-1.94-2.09-2.81-3.172
				c-3.592-4.286-6.718-8.741-9.649-13.293c-1.467-2.276-2.876-4.576-4.224-6.912c-1.359-2.346-2.668-4.645-3.938-7.129
				L243.983,245.59z"/>
			<path style="fill:#407BFF;" d="M191.637,235.609c-7.294,1.672-15.659,21.558-15.659,21.558l14.65,10.04
				c0,0,5.549-7.763,9.675-16.45C204.627,241.656,199.095,233.899,191.637,235.609z"/>
			<path style="opacity:0.2;" d="M196.864,248.289l-6.928,18.442l0.688,0.477c0,0,2.998-4.205,6.24-9.883V248.289z"/>
			<path style="fill:#407BFF;" d="M235.235,236.01c0,0,8.283,9.356,0.461,67.264c-12.542,0-35.521,0-41.624,0
				c-0.287-6.39,3.728-37.559-2.435-67.665c0,0,7.135-1.432,13.934-1.76c5.318-0.256,13.018-0.426,17.694,0.001
				C229.429,234.413,235.235,236.01,235.235,236.01z"/>
			<path style="opacity:0.2;" d="M230.614,252.751c0.137,0.17,1.049,9.565,8.22,17.818c0.17-3.729,0.233-7.076,0.222-10.074
				L230.614,252.751z"/>
			<path style="fill:#407BFF;" d="M227.025,242.319c-1.026,7.369,13.493,26.193,13.493,26.193l14.589-10.042
				c0,0-4.044-10.374-10.859-17.172C236.468,233.537,228.141,234.299,227.025,242.319z"/>
			<path style="fill:#B55B52;" d="M281.968,278.387l5.943-2.433l6.113,4.612c0,0-5.836,5.161-11.137,3.157L281.968,278.387z"/>
			<polygon style="fill:#B55B52;" points="291.861,275.711 296.341,278.911 294.024,280.567 287.911,275.954 			"/>
			<path style="fill:#B55B52;" d="M209.914,203.612c-2.086,7.437-3.684,11.683-1.307,16.699c3.576,7.546,13.723,7.337,17.989,0.674
				c3.839-5.998,6.605-17.151,0.486-22.528C221.053,193.16,212,196.176,209.914,203.612z"/>
			<path style="fill:#263238;" d="M225.747,203.687c-3.035,8.545-6.524,17.924-15.145,16.146
				c-5.561-1.148-5.991-10.099-7.997-14.168c-1.764-3.578-1.659-10.755,1.96-10.844c-1.633-2.383,6.655-11.093,12.314-6.488
				c1.447-2.001,11.901-7.889,19.642,1.457C243.841,198.628,240.266,206.023,225.747,203.687z"/>
			<path style="fill:#B55B52;" d="M219.004,209.147c-0.246,2.008,0.333,4.046,1.218,5.472c1.331,2.145,3.282,1.32,3.989-0.865
				c0.636-1.967,0.71-5.452-1.144-6.84C221.24,205.546,219.285,206.851,219.004,209.147z"/>
			<g>
				<path style="fill:#407BFF;" d="M282.883,406.876c0.998,0,1.962-0.138,2.286-0.586c0.113-0.157,0.203-0.425-0.015-0.806
					c-0.122-0.214-0.319-0.358-0.585-0.431c-1.295-0.353-4.015,1.197-4.13,1.264c-0.067,0.038-0.103,0.114-0.09,0.19
					c0.012,0.076,0.07,0.135,0.146,0.15C280.991,406.756,281.952,406.876,282.883,406.876z M284.116,405.366
					c0.13,0,0.249,0.013,0.356,0.042c0.17,0.046,0.288,0.13,0.361,0.258c0.131,0.229,0.083,0.342,0.036,0.408
					c-0.362,0.502-2.33,0.514-3.776,0.31C281.815,406.014,283.207,405.366,284.116,405.366z"/>
				<path style="fill:#407BFF;" d="M280.531,406.66c0.026,0,0.051-0.005,0.076-0.016c0.939-0.422,2.8-2.105,2.658-2.984
					c-0.034-0.206-0.18-0.463-0.686-0.515c-0.375-0.035-0.72,0.069-1.022,0.317c-0.99,0.813-1.199,2.909-1.208,2.997
					c-0.006,0.066,0.023,0.129,0.076,0.168C280.455,406.649,280.493,406.66,280.531,406.66z M282.43,403.505
					c0.036,0,0.073,0.002,0.111,0.006c0.331,0.034,0.353,0.164,0.359,0.207c0.086,0.528-1.179,1.85-2.137,2.426
					c0.1-0.612,0.378-1.866,1.027-2.399C281.986,403.585,282.196,403.505,282.43,403.505z"/>
				<polygon style="fill:#B55B52;" points="271.478,406.476 279.26,406.476 281.027,388.454 273.245,388.454 				"/>
				<path style="fill:#263238;" d="M279.704,405.575l-8.499,0c-0.318,0-0.594,0.221-0.663,0.532l-1.537,6.917
					c-0.159,0.717,0.385,1.397,1.119,1.384c3.066-0.052,7.496-0.232,11.349-0.232c4.505,0,8.396,0.246,13.68,0.246
					c3.195,0,4.081-3.23,2.744-3.522c-6.088-1.332-11.059-1.474-16.32-4.718C281.007,405.829,280.376,405.575,279.704,405.575z"/>
				<polygon style="opacity:0.2;" points="281.025,388.459 280.115,397.749 272.33,397.749 273.239,388.459 				"/>
			</g>
			<path style="fill:#407BFF;" d="M251.692,406.875c0.798,0,1.571-0.122,1.87-0.514c0.126-0.164,0.227-0.45-0.006-0.875
				c-0.123-0.223-0.317-0.367-0.579-0.429c-1.133-0.267-3.285,1.205-3.376,1.268c-0.06,0.041-0.09,0.114-0.077,0.185
				c0.014,0.071,0.068,0.128,0.138,0.145C250.061,406.751,250.889,406.875,251.692,406.875z M252.666,405.391
				c0.081,0,0.157,0.008,0.227,0.024c0.158,0.037,0.269,0.118,0.34,0.248c0.167,0.303,0.069,0.431,0.037,0.473
				c-0.333,0.435-1.921,0.443-3.085,0.248C250.855,405.972,251.958,405.391,252.666,405.391z"/>
			<path style="fill:#407BFF;" d="M249.705,406.66c0.03,0,0.061-0.007,0.088-0.022c0.805-0.437,2.362-2.142,2.198-3.01
				c-0.03-0.157-0.146-0.429-0.587-0.483c-0.285-0.034-0.55,0.044-0.785,0.237c-0.904,0.739-1.09,2.984-1.098,3.08
				c-0.005,0.067,0.027,0.132,0.083,0.169C249.636,406.65,249.671,406.66,249.705,406.66z M251.276,403.506
				c0.027,0,0.055,0.001,0.083,0.005c0.24,0.03,0.26,0.139,0.27,0.186c0.097,0.513-0.895,1.801-1.695,2.409
				c0.091-0.656,0.339-1.965,0.919-2.438C250.985,403.559,251.124,403.506,251.276,403.506z"/>
			<polygon style="fill:#B55B52;" points="240.79,406.476 248.572,406.476 252.483,388.454 244.701,388.454 			"/>
			<path style="fill:#263238;" d="M249.125,405.575l-8.743,0c-0.318,0-0.594,0.221-0.663,0.532l-1.537,6.917
				c-0.159,0.717,0.404,1.396,1.139,1.384c3.052-0.053,4.535-0.231,8.38-0.231c2.365,0,5.401,0.246,8.667,0.246
				c3.195,0,3.693-3.23,2.356-3.522c-5.996-1.312-6.417-3.12-8.337-4.846C250.042,405.742,249.59,405.575,249.125,405.575z"/>
			<g style="opacity:0.2;">
				<polygon points="244.698,388.459 252.484,388.459 250.464,397.749 242.678,397.749 				"/>
			</g>
			<path style="fill:#263238;" d="M235.696,303.274c0,0,58.305,6.167,57.666,35.908c-0.665,30.935-10.618,54.614-10.618,54.614
				h-11.563c0,0,0.589-18.861,0.2-49.317c-0.116-9.124-18.553-12.139-36.558-13.203c-15.553-0.919-29.196-10.701-35.239-25.062
				l-1.237-2.94H235.696z"/>
			<path style="fill:#407BFF;" d="M285.568,390.699c0.061,0-0.744,5.473-0.744,5.473h-16.036l-0.434-4.885L285.568,390.699z"/>
			<path style="fill:#263238;" d="M223.221,303.274c0,0,42.261,14.018,43.326,31.36c1.962,31.938-13.704,59.162-13.704,59.162
				H241.17c0,0,4.433-13.496,6.024-42.431c1.998-36.357-65.829-0.064-53.121-48.09H223.221z"/>
			<path style="fill:#407BFF;" d="M256.367,390.699c0.061,0-1.472,5.473-1.472,5.473h-16.036l0.294-4.885L256.367,390.699z"/>
		</g>
		<g>
			<path style="fill:#407BFF;" d="M253.696,333.885h-64.992l0,0c0-4.095,3.32-7.415,7.415-7.415h50.162
				C250.376,326.47,253.696,329.79,253.696,333.885L253.696,333.885z"/>
			<g>
				<polygon style="fill:#407BFF;" points="191.706,333.885 181.914,416.041 184.007,416.041 196.434,333.885 				"/>
				<polygon style="opacity:0.4;" points="191.706,333.885 181.914,416.041 184.007,416.041 196.434,333.885 				"/>
			</g>
			<g>
				<polygon style="fill:#407BFF;" points="204.818,333.885 204.631,416.041 206.724,416.041 209.546,333.885 				"/>
				<polygon style="opacity:0.4;" points="204.818,333.885 204.631,416.041 206.724,416.041 209.546,333.885 				"/>
			</g>
			<g>
				<polygon style="fill:#407BFF;" points="250.693,333.885 260.485,416.041 258.393,416.041 245.965,333.885 				"/>
				<polygon style="opacity:0.4;" points="250.693,333.885 260.485,416.041 258.393,416.041 245.965,333.885 				"/>
			</g>
			<g>
				<polygon style="fill:#407BFF;" points="237.581,333.885 237.768,416.041 235.676,416.041 232.853,333.885 				"/>
				<polygon style="opacity:0.4;" points="237.581,333.885 237.768,416.041 235.676,416.041 232.853,333.885 				"/>
			</g>
		</g>
	</g>
</g>
</svg>
